<svg width="400" height="410" xmlns="http://www.w3.org/2000/svg">
 <g id="Layer_1">
  <title>Layer 1</title>
  <g stroke="null">
   <g stroke="null" data-name="圖層 2" id="svg_1">
    <g stroke="null" data-name="圖層 1" id="svg_2">
     <path stroke="null" d="m218.53969,39.17274q0,9.94056 -10.77888,9.92856q-6.71884,0 -17.09053,-10.77888a118.36419,118.36419 0 0 1 -14.21616,-18.82713a15.01859,15.01859 0 0 1 -2.77855,-7.74883q0,-6.57511 7.18594,-6.57511a14.87487,14.87487 0 0 1 4.97025,1.01801a58.68506,58.68506 0 0 1 21.91707,13.44964q10.79086,9.89264 10.79086,19.53374z"/>
     <path stroke="null" d="m189.68822,89.36645q9.66507,0 12.70711,8.28778q4.98225,1.11381 11.32982,3.04205a188.37904,188.37904 0 0 0 46.42107,6.63498l18.2283,0q10.21603,0.26349 9.94049,6.34756q0,6.0841 -11.32977,9.11417a165.27629,165.27629 0 0 1 -26.51605,1.94019a220.78758,220.78758 0 0 1 -49.10384,-5.53316a71.00893,71.00893 0 0 0 -1.66473,9.4016a581.10193,581.10193 0 0 0 58.84077,3.03004q26.51608,0 39.78607,-1.92824a60.24202,60.24202 0 0 1 7.72491,-1.66472q16.28802,0 16.30008,7.73683q0,4.15587 -4.97031,8.8387q-23.474,21.55779 -36.18115,38.13332q-4.9823,7.4614 -9.67709,7.44942c-2.75458,0 -4.14389,-1.55695 -4.14389,-4.69479q0,-6.07211 7.46143,-31.76181a205.39774,205.39774 0 0 1 -29.55811,2.20367q-22.65962,0 -43.11555,-1.10182a25.43818,25.43818 0 0 1 -1.66475,2.47911c-0.73058,1.66476 -1.47311,3.23369 -2.20367,4.70677q11.60527,0.27551 25.41423,0.27551q15.18623,-0.27551 27.90535,-1.11383q15.4617,0 15.73721,8.0123q0,6.35954 -11.60532,9.67705q-12.43166,3.59294 -43.11555,3.59294q-9.66508,0 -17.96481,-0.27542q1.91623,6.92244 17.40192,6.91045a167.09676,167.09676 0 0 0 32.33667,-3.31749a57.67904,57.67904 0 0 1 7.18591,-1.37733c2.39532,0 3.59297,0.74257 3.59297,2.20372q0,3.32947 -12.14421,7.73683q-22.12068,8.01231 -41.16338,8.01231q-17.13846,0 -27.6299,-8.01231a23.55786,23.55786 0 0 1 -8.28777,-13.80896q-7.18591,-0.82639 -12.98259,-1.92819c-2.94621,-0.55095 -5.61697,-1.11385 -8.01228,-1.66476q-1.65279,12.43166 -4.41936,26.51608q-12.14421,66.33803 -33.70199,99.71663q-15.19823,24.8634 -26.24061,24.8634q-4.98224,0 -5.79665,-7.46146c0,-6.62305 1.19765,-9.94049 3.59296,-9.94049a5.43735,5.43735 0 0 1 2.49113,0.55093a4.17981,4.17981 0 0 0 1.65276,0.55087q4.70678,0 11.60527,-15.46167q11.29388,-24.08487 17.62946,-61.33191q7.74883,-36.18117 9.4016,-88.94978l0,-1.11383q-27.62989,-6.07208 -27.62989,-17.96483a11.01842,11.01842 0 0 1 4.14388,-8.56318a12.38375,12.38375 0 0 1 9.11415,-3.59297q9.66508,0 33.15107,5.25769q14.37186,2.75459 28.1808,4.69482a101.52516,101.52516 0 0 1 3.59297,-16.57556a21.41406,21.41406 0 0 1 3.86842,-7.73684q4.40736,-10.25191 14.08443,-11.04237zm24.31238,191.21748q21.55779,0 49.16368,2.75467q32.60019,2.50305 32.60019,20.44394q0,4.41934 -7.18591,13.80893c2.94623,-0.17969 5.71277,-0.37128 8.28772,-0.55087q18.50372,0 19.06665,9.12613q0,8.28775 -17.40195,12.14417q-18.79111,4.4194 -64.37386,4.4313q-62.97267,0 -92.81821,-4.70676q-35.61826,-5.24573 -35.63022,-15.18625t15.50961,-10.0004q3.86842,0 11.59329,0.83832a29.39044,29.39044 0 0 1 -1.65276,-6.35953q0,-7.72482 6.91048,-13.53351q8.28773,-6.07211 26.51604,-9.11414q19.29424,-4.09601 49.41524,-4.09601zm4.69481,-73.7635q21.80928,0 40.04953,1.66475q32.87567,3.03004 32.87567,20.44391q0,5.24579 -11.88074,20.70747a65.34402,65.34402 0 0 1 -4.69479,5.25774q7.72476,1.38925 7.73679,8.27576q0,7.18594 -16.30005,10.7789q-15.19824,3.28156 -38.67227,3.26965a343.09207,343.09207 0 0 1 -44.48087,-2.49115q-3.04205,5.85648 -12.1562,5.85648q-9.66507,0 -22.9231,-15.47369q-11.32982,-13.56944 -11.32982,-24.0489a21.05476,21.05476 0 0 1 7.46138,-16.85094q10.216,-9.10223 30.93542,-13.53352a265.13675,265.13675 0 0 1 43.37904,-3.90437l0,0.04793zm-71.5479,-48.61278q5.24574,0.5629 15.74918,1.92821c1.28149,0.19162 2.65878,0.37129 4.14388,0.55093c0.73059,-2.75462 1.65277,-5.61703 2.75461,-8.56325q-11.34178,-1.3773 -22.09671,-2.75459q-0.28743,4.37143 -0.55095,8.79077l0,0.04793zm21.5578,159.1084q10.49146,0.56287 23.76147,1.38931q-2.22765,-7.18594 -4.98225,-16.57559c-2.20369,0.17963 -4.51515,0.45514 -6.89848,0.82642q-14.10838,1.65277 -14.09639,6.63498a14.97068,14.97068 0 0 0 1.11382,4.41931a17.67738,17.67738 0 0 1 1.08986,3.25766l0.01198,0.04791zm11.59331,-63.08054l4.41934,0.56294q9.66505,1.38933 22.9231,1.92821q0,-3.86839 0.27547,-7.46136a261.99887,261.99887 0 0 1 -29.83359,-3.86847q0.82639,3.92833 2.21568,8.83868zm29.28262,-20.15646a31.23483,31.23483 0 0 1 1.3773,-4.97029a26.83943,26.83943 0 0 1 1.37732,-4.15582a107.68111,107.68111 0 0 0 -24.30043,5.3295a1.19765,1.19765 0 0 1 -0.83835,0.27551a184.57053,184.57053 0 0 0 22.38416,3.56898l0,-0.04788zm5.24574,85.03348q8.28777,0.26343 17.12646,0.27542a109.07038,109.07038 0 0 1 6.63499,-18.44391q-13.53351,-0.26346 -25.68968,-0.27542l-2.21567,0q3.03006,11.62924 4.14389,18.53973l0,-0.09583zm16.30006,-62.15829q11.60529,-0.26346 22.92311,-1.65279c0,-1.1138 1.84439,-4.59895 5.53313,-10.50345q6.61105,-11.04234 6.62305,-12.98253q0,-5.24573 -9.11417,-6.07211q-8.56319,-0.8264 -20.99484,-1.11382l0,2.05994a30.49228,30.49228 0 0 1 -0.8264,5.79666l-1.1138,2.76659l14.09641,0q9.37758,0.56287 9.11415,5.79669c0,2.95818 -3.31752,5.34149 -9.95253,7.18591a129.86166,129.86166 0 0 1 -15.73718,1.37726q-0.27545,3.569 -0.55092,7.43747l0,-0.09583zm13.25804,62.43372l3.03006,0q9.38963,-0.27542 17.9648,-0.55087c0.55099,-1.1019 1.19769,-2.31146 1.92822,-3.59299q4.15588,-7.73685 4.14392,-9.38962q0,-2.76657 -11.31787,-3.86847l-8.83865,-0.55087q-3.61693,8.64709 -6.91048,18.04865l0,-0.09583z"/>
     <path stroke="null" d="m326.92746,358.87466c-0.4791,0 -1.59293,0.75446 -3.3295,2.25159a4.79062,4.79062 0 0 1 -0.86237,0.59875c-0.17963,0.27551 -0.3233,0.51505 -0.45511,0.74258a15.56951,15.56951 0 0 0 2.62296,2.05994a30.65995,30.65995 0 0 0 2.39526,-5.35355c0.03595,-0.19159 -0.08386,-0.29932 -0.37125,-0.29932z"/>
     <path stroke="null" d="m351.39551,308.74075q-7.26978,0 -16.76712,5.74881a254.286,254.286 0 0 0 -40.85202,29.37845q-23.43811,21.55777 -23.43811,35.4386q0,22.39609 21.55771,22.40808q20.9111,0 42.43295,-22.40808a120.89124,120.89124 0 0 0 29.13892,-45.42706a29.22277,29.22277 0 0 0 2.2157,-10.2998q-0.03592,-14.83899 -14.28802,-14.83899zm-43.49884,55.45151a18.85108,18.85108 0 0 1 -5.12598,-0.49109a1.89229,1.89229 0 0 1 -1.19763,-1.83246c0,-1.26944 0.8623,-1.92822 2.57504,-1.97607l2.02399,0.17966a43.35509,43.35509 0 0 1 -1.30545,-9.90469l0,-0.19153l-0.75452,-0.25153c-1.68872,-0.70663 -2.53906,-1.60489 -2.53906,-2.69482s0.7066,-1.7485 2.13184,-1.79639a17.79714,17.79714 0 0 1 2.94623,1.07791l0.29947,0.08377a12.95862,12.95862 0 0 1 0.56287,-2.46716a2.39531,2.39531 0 0 1 1.56885,-1.38922c1.53314,0 2.31155,1.61679 2.39542,4.8624a7.36557,7.36557 0 0 0 1.19757,0.10788l2.39536,0a3.10192,3.10192 0 0 1 1.56894,0.37128a4.63492,4.63492 0 0 1 -0.56287,-2.39529a7.07814,7.07814 0 0 1 2.13177,-4.41943a22.9231,22.9231 0 0 1 4.67084,-3.91635a4.58702,4.58702 0 0 1 2.06003,-1.08984c1.79642,0 2.69467,0.76654 2.69467,2.28748c0,0.6228 -0.61084,1.35345 -1.8324,2.20374a22.09672,22.09672 0 0 0 -4.07208,3.70078a4.43132,4.43132 0 0 0 -1.00598,1.71265c0,0.50299 0.44315,0.75452 1.34134,0.75452a14.57545,14.57545 0 0 0 6.50327,-2.06c-0.11975,-0.1676 -0.25146,-0.35928 -0.37119,-0.56287a3.59296,3.59296 0 0 1 -0.7067,-1.90421c0.16766,-1.19769 0.76657,-1.92831 1.78458,-2.06003c0.55087,0 1.1976,0.41916 1.79645,1.19766a19.92897,19.92897 0 0 0 2.65875,2.95825a2.67077,2.67077 0 0 1 1.07791,2.25153a1.56893,1.56893 0 0 1 -1.79645,1.48514a3.66482,3.66482 0 0 1 -2.08392,-1.07791a7.70092,7.70092 0 0 1 -0.8623,-0.68268a0.23953,0.23953 0 0 1 -0.11978,0.08386a22.98299,22.98299 0 0 1 -6.45541,3.20969q-2.88626,4.79062 -4.79056,8.12015c-0.59885,0.94611 -1.19772,1.41324 -1.8324,1.41324a1.19765,1.19765 0 0 1 -1.3414,-1.3414a9.20996,9.20996 0 0 1 0.55096,-2.09595l2.39529,-6.32361a3.83249,3.83249 0 0 1 -1.26953,-0.70654a2.77856,2.77856 0 0 0 -0.26349,-0.29941a0.93417,0.93417 0 0 1 0,0.26343c0,0.74252 -0.74258,1.32941 -2.21567,1.72464a28.14488,28.14488 0 0 1 -5.0062,0.40723c-0.43118,0 -0.83832,0 -1.19766,0c0.29944,3.86832 0.62283,6.79059 0.97009,8.79074l0.0719,0.59882l1.01801,0c0.09576,-0.38324 0.20355,-0.79041 0.33536,-1.19766a27.42628,27.42628 0 0 1 2.61084,-6.43137c0.62277,-0.88629 1.19766,-1.3414 1.79648,-1.3414a0.7665,0.7665 0 0 1 0.86227,0.86237a1.74858,1.74858 0 0 1 -0.49097,0.97009a28.55208,28.55208 0 0 0 -3.59299,7.10208l0.63477,-0.07184a10.77889,10.77889 0 0 1 1.64081,-0.22766c1.521,0 2.27554,0.51508 2.27554,1.53302s-0.67075,1.521 -2.16782,2.02405a23.36624,23.36624 0 0 1 -6.5871,0.8624zm27.17484,4.07196a4.13191,4.13191 0 0 1 -2.16772,0.6348a19.92897,19.92897 0 0 1 -6.04819,-0.97012c-0.47913,-0.14371 -0.94617,-0.31143 -1.38934,-0.49106l-0.7066,0.7905c-1.19763,1.01797 -1.94019,1.53296 -2.39526,1.53296a0.3593,0.3593 0 0 1 -0.40723,-0.40726q0,-0.89813 0.25153,-0.89813a0.46709,0.46709 0 0 0 0.29938,0.14368c0.17963,0 0.57483,-0.61081 1.19763,-1.83243a20.80326,20.80326 0 0 1 -3.1738,-1.90424c-0.43112,0.59875 -0.88617,1.19766 -1.38922,1.8324s-1.1976,1.12576 -1.56894,1.12576c-1.1976,0 -1.79651,-0.50305 -1.79651,-1.49704a7.42546,7.42546 0 0 1 1.05402,-3.13785a57.96647,57.96647 0 0 1 3.36536,-6.25183q1.46115,-1.97614 2.01208,-1.97614c1.37726,0 2.11981,0.59882 2.25159,1.79648a5.0062,5.0062 0 0 1 0.67072,-0.3353a8.07219,8.07219 0 0 1 2.16772,-0.71857a4.10795,4.10795 0 0 1 -0.86234,-2.64685a10.5154,10.5154 0 0 1 0.86234,-4.08401a1.83241,1.83241 0 0 1 1.64081,-1.19766c1.42517,0 2.13181,0.65875 2.13181,1.95224a5.13794,5.13794 0 0 1 -0.26346,1.37735a12.55142,12.55142 0 0 0 -0.37134,2.80246c0,0.87424 0.61084,1.31738 1.8324,1.31738a4.69481,4.69481 0 0 0 1.83249,-0.41916a1.62881,1.62881 0 0 1 0.41913,-0.14371c0.28745,0 0.44318,0.08386 0.44318,0.26346s-0.31143,0.6228 -0.93423,1.04202a6.26373,6.26373 0 0 1 -2.32346,0.97a1.7366,1.7366 0 0 1 0.08389,0.56296a6.73082,6.73082 0 0 1 -1.38934,3.73666a35.31882,35.31882 0 0 1 -3.32938,4.45532a17.22227,17.22227 0 0 0 2.09583,0.70657a12.03643,12.03643 0 0 0 3.84451,0.67068a1.35335,1.35335 0 0 0 1.1976,-0.59882a1.25754,1.25754 0 0 1 0.89822,-0.3353c0.43121,0 0.63477,0.26343 0.63477,0.79041a1.71265,1.71265 0 0 1 -0.67062,1.34137z"/>
     <path stroke="null" d="m381.63626,212.31764c-0.45505,-5.73674 -1.06595,-11.48549 -1.60483,-17.27016c-0.89825,-5.71283 -2.04794,-11.41368 -3.07797,-17.18634c-1.36533,-5.66492 -3.16183,-11.24599 -4.79062,-16.92287a169.46809,169.46809 0 0 0 -35.61823,-61.4277c-4.25171,-4.23972 -8.51532,-8.5273 -12.87479,-12.71909c-4.68289,-3.79658 -9.3298,-7.71289 -14.13235,-11.43761c-5.05411,-3.34143 -10.09625,-6.77869 -15.29401,-9.94052c-5.40143,-2.80251 -10.77887,-5.79664 -16.27612,-8.38358c-5.6889,-2.20368 -11.32983,-4.62293 -17.12643,-6.61104c-5.8925,-1.64079 -11.77299,-3.49717 -17.7493,-4.8984c-5.98828,-1.00603 -12.0963,-2.14381 -18.19235,-3.00613l-18.40797,-1.19765l-18.45586,0.76652c-6.12,0.70661 -12.21606,1.67671 -18.3241,2.55098c-5.98827,1.19765 -11.97653,2.95821 -17.9648,4.46726c-5.85654,1.80847 -11.60529,4.10795 -17.35402,6.20384a188.76231,188.76231 0 0 0 -61.08038,41.10351a191.00192,191.00192 0 0 0 -41.05559,60.99652c-2.05997,5.80864 -4.37144,11.54541 -6.23978,17.42587c-1.50904,5.98827 -3.22169,11.97653 -4.50318,17.9648c-0.89824,6.10808 -1.84439,12.21609 -2.53903,18.32414l-0.75452,18.46783l1.19765,18.40796c0.86231,6.08403 2.00008,12.13223 3.01809,18.19235c1.38928,5.98828 3.24564,11.84476 4.87445,17.74927c1.98811,5.78467 4.40737,11.43759 6.61105,17.12643c2.59891,5.53317 5.59304,10.87473 8.38358,16.27615c3.16181,5.20978 6.59908,10.25192 9.92855,15.31796c3.71273,4.79065 7.62906,9.44952 11.43761,14.13232c4.19178,4.35947 8.47939,8.62314 12.7071,12.88678c4.65887,3.84448 9.28182,7.67697 13.96466,11.40167c5.0062,3.32947 9.98843,6.64691 15.04253,9.78482c5.3056,2.75461 10.56332,5.53317 15.91684,8.04831c5.55709,2.13174 10.98248,4.44324 16.53958,6.35953c5.67691,1.58081 11.25797,3.37732 16.93483,4.73065c5.76074,1.03003 11.47356,2.16776 17.18636,3.05402c5.78468,0.53894 11.5334,1.19766 17.25819,1.61679l17.24623,0.15579l17.12646,-1.36536c5.65292,-0.88632 11.26991,-1.91629 16.8989,-2.86243c5.53317,-1.35333 11.03041,-2.88629 16.55161,-4.31158c5.12598,-1.65271 10.13217,-3.67673 15.19824,-5.52115c-0.26349,-0.63474 -0.50305,-1.30542 -0.71866,-1.9881c-5.04208,1.77261 -10.03635,3.72476 -15.15027,5.3176c-5.4733,1.2934 -10.87473,2.89832 -16.3959,3.92834c-5.58107,0.69458 -11.12622,1.58084 -16.76717,2.10788l-16.76715,0.34723l-16.68335,-1.55688c-5.49722,-0.9462 -10.92259,-2.26358 -16.336,-3.35339c-5.34152,-1.49707 -10.53937,-3.49722 -15.76114,-5.18594c-5.11397,-2.05994 -10.06029,-4.50311 -15.04251,-6.70685a180.51047,180.51047 0 0 1 -50.84045,-39.42676a168.24648,168.24648 0 0 1 -43.11555,-114.66342l0.9701,-15.47371c0.70661,-5.11397 1.65276,-10.18005 2.39531,-15.27008c1.10184,-5.03012 2.52704,-9.97646 3.73668,-14.98264c1.54498,-4.9104 3.49716,-9.67706 5.1619,-14.55153a156.31784,156.31784 0 0 1 34.01337,-51.30751a158.65327,158.65327 0 0 1 51.33147,-33.91758c4.86249,-1.6887 9.58122,-3.59296 14.53952,-5.17384c5.00621,-1.19766 9.96449,-2.61092 14.97067,-3.78459c5.09004,-0.76653 10.16811,-1.71268 15.2701,-2.39531l15.47371,-0.94616a168.498,168.498 0 0 1 114.71135,43.11555a179.38467,179.38467 0 0 1 39.40283,50.87638c2.19168,4.98224 4.63489,9.94051 6.68292,15.05447c1.68866,5.20981 3.67676,10.40764 5.1619,15.76114c1.10178,5.41339 2.39523,10.83879 3.36533,16.33598l1.56897,16.6834l-0.3114,16.76717c-0.56293,5.56905 -1.41321,11.12617 -2.10782,16.76717c-1.12589,5.49716 -2.65881,10.92258 -3.97623,16.38382c-1.67679,5.36554 -3.68878,10.63519 -5.61703,15.91687c-2.08389,4.97031 -4.41928,9.84476 -6.95834,14.59943a11.62922,11.62922 0 0 1 2.048,1.12576c2.53897,-4.85046 4.86246,-9.82077 6.92239,-14.8988c1.86835,-5.37744 4.09595,-10.63516 5.83258,-16.06049c1.40125,-5.52127 3.0061,-11.00656 4.26361,-16.56363c0.94617,-5.61697 2.01208,-11.24597 2.87445,-16.88695l1.38922,-17.12643l-0.14371,-17.31808z"/>
    </g>
   </g>
  </g>
 </g>

</svg>