<svg xmlns="http://www.w3.org/2000/svg" viewBox="0 0 5500 542.35"><defs><style>.cls-1{fill:#f9bc20;}</style></defs><g id="レイヤー_2" data-name="レイヤー 2"><g id="レイヤー_5" data-name="レイヤー 5"><path class="cls-1" d="M5500,16.43c-112.87-14.41-325-18.25-489.15.4-452,51.38-783.2,3.07-956.62-11.44-344-23.67-664.42,38.75-824.52,31.39,0,0-254-21.28-469.46-21.28S2395.7,63.91,2270.66,63.91s-234.11-20.47-234.11-20.47c-213-37.21-516.29-61.16-827.55,24.64S693.09,103.82,554.56,94C404,85.57,189.45,60.6,0,63.49V529.93c111.76,15,385.63,20,554.56-5.67,0,0,285.75-34,562.66-27.3,316.75,7.69,536.7,60.9,851.47-5.12,112.36-12,238.79-39.62,443.71-20.7s580.17,30,823.87-5.66c112.87-16.53,199.79-18.91,199.79-18.91,227.1-1.39,472.51,51.64,704,61.62s369.12,4,584.61-25.94,286.22-20.48,286.22-20.48c128.58,10.82,400.29,33.86,489.15,23.3Z"/></g></g></svg>