<?xml version="1.0" standalone="no"?>
<!DOCTYPE svg PUBLIC "-//W3C//DTD SVG 20010904//EN"
 "http://www.w3.org/TR/2001/REC-SVG-20010904/DTD/svg10.dtd">
<svg version="1.0" xmlns="http://www.w3.org/2000/svg"
 width="1280.000000pt" height="1280.000000pt" viewBox="0 0 1280.000000 1280.000000"
 preserveAspectRatio="xMidYMid meet">
<metadata>
Created by potrace 1.15, written by Peter Selinger 2001-2017
</metadata>
<g transform="translate(0.000000,1280.000000) scale(0.100000,-0.100000)"
fill="#e91e63" stroke="none">
<path d="M6060 12674 c-25 -2 -110 -9 -190 -15 -1427 -106 -2793 -730 -3839
-1754 -1006 -984 -1649 -2265 -1835 -3655 -45 -334 -51 -444 -51 -875 1 -439
9 -567 61 -920 345 -2330 1969 -4282 4184 -5028 1882 -634 3955 -326 5567 827
1426 1020 2350 2560 2583 4309 49 367 66 915 40 1267 -106 1423 -639 2693
-1577 3760 -150 170 -477 489 -653 636 -982 822 -2142 1305 -3432 1430 -152
14 -751 27 -858 18z m825 -1578 c1071 -134 1990 -572 2734 -1300 262 -258 439
-470 636 -766 461 -691 721 -1451 786 -2290 15 -199 7 -687 -15 -870 -41 -347
-115 -677 -221 -995 -176 -528 -438 -1009 -794 -1460 -81 -102 -85 -105 -102
-88 -10 10 -1352 1617 -2984 3572 l-2966 3554 83 49 c565 331 1260 549 1943
608 162 14 749 5 900 -14z m-1094 -5194 c1636 -1960 2975 -3566 2976 -3570 3
-10 -144 -92 -334 -188 -540 -271 -1140 -432 -1769 -475 -185 -13 -585 -7
-749 11 -972 105 -1813 461 -2555 1079 -241 201 -541 521 -745 796 -486 652
-798 1429 -899 2235 -74 592 -33 1235 115 1800 145 553 402 1107 722 1554 108
151 248 327 257 324 4 -2 1346 -1606 2981 -3566z"/>
</g>
</svg>
